<svg version="1.1" id="Layer_1" xmlns="http://www.w3.org/2000/svg" xmlns:xlink="http://www.w3.org/1999/xlink" x="0px" y="0px"
	 width="100%" viewBox="0 0 500 500" enable-background="new 0 0 500 500" xml:space="preserve">
<path fill="#FFFFFF" opacity="1.000000" stroke="none" 
	d="
M331.000000,501.000000 
	C220.666687,501.000000 110.833389,501.000000 1.000059,501.000000 
	C1.000039,334.333405 1.000039,167.666794 1.000020,1.000148 
	C167.666565,1.000099 334.333130,1.000099 500.999756,1.000049 
	C500.999847,167.666519 500.999847,334.333038 500.999939,500.999786 
	C444.500000,501.000000 388.000000,501.000000 331.000000,501.000000 
M362.976257,304.963928 
	C362.976257,304.963928 363.008911,304.955200 362.315521,304.923706 
	C361.742645,305.296021 361.169739,305.668304 360.570282,306.039398 
	C360.570282,306.039398 360.544586,306.032593 359.794525,306.109894 
	C359.393890,306.405945 358.993256,306.701996 358.560181,307.033539 
	C358.560181,307.033539 358.514618,307.018402 357.557037,306.993744 
	C355.385651,306.962494 353.214294,306.931274 351.021820,306.986389 
	C351.021820,306.986389 351.089539,306.928802 350.952423,306.426605 
	C350.667236,306.250671 350.382080,306.074738 350.020325,305.978577 
	C350.020325,305.978577 350.123901,305.939789 350.204163,305.234009 
	C351.368408,304.202850 352.367889,302.807861 353.721527,302.195007 
	C374.613342,292.736633 395.554993,283.388397 416.476501,273.995575 
	C425.219238,270.070465 433.941833,266.100555 443.287811,261.873199 
	C441.189850,260.558167 439.851929,259.608307 438.417908,258.837128 
	C410.008514,243.559341 381.616486,228.248688 353.128510,213.118652 
	C350.064667,211.491425 348.841614,209.752365 348.878784,206.236450 
	C349.060059,189.092300 349.074280,171.943802 348.868866,154.800186 
	C348.824493,151.097183 347.631012,147.407959 346.874969,143.608826 
	C346.874969,143.608826 346.944946,143.489365 347.006500,142.664261 
	C346.624695,141.685959 346.242859,140.707657 345.439789,139.235657 
	C340.922272,129.103485 332.656677,123.743164 321.642029,120.467392 
	C318.953766,120.331406 316.265472,120.195419 313.193237,120.177414 
	C312.919495,120.216728 312.657562,120.177444 311.535217,119.911911 
	C310.671906,118.802727 309.182953,117.768288 309.040131,116.573006 
	C307.229553,101.420319 305.643219,86.241035 303.931610,71.076225 
	C303.223236,64.800400 302.352173,58.542938 301.484680,51.723652 
	C300.226593,52.655849 299.653778,52.993053 299.185547,53.439861 
	C284.250854,67.691330 269.309540,81.935951 254.404526,96.218437 
	C236.492264,113.382538 218.656586,130.627197 200.632462,147.672760 
	C199.217529,149.010880 196.403671,149.958237 194.546753,149.580231 
	C155.530441,141.637650 116.560181,133.469025 77.575714,125.369659 
	C71.333611,124.072807 65.066803,122.894890 58.077293,121.517296 
	C58.813957,123.440544 59.099274,124.383690 59.522099,125.260551 
	C73.113663,153.447433 86.732803,181.621033 100.314728,209.812561 
	C106.237671,222.106628 112.231361,234.371216 117.826485,246.813965 
	C118.724449,248.810883 118.523323,252.143402 117.433769,254.067825 
	C97.759438,288.817474 77.838760,323.427551 58.061836,358.119354 
	C55.126526,363.268341 52.652752,368.680450 49.663151,374.061707 
	C49.783730,374.051178 49.904308,374.040649 50.916130,374.095642 
	C64.394875,372.398773 77.881897,370.764679 91.350250,368.988983 
	C107.774170,366.823517 124.181770,364.534424 140.597595,362.307343 
	C156.031540,360.213409 171.453094,358.013489 186.918121,356.181091 
	C189.009781,355.933258 192.032730,356.900116 193.426682,358.410217 
	C213.040161,379.657501 232.462082,401.081818 251.894104,422.496216 
	C259.931915,431.353973 267.779846,440.386292 275.922272,449.145752 
	C279.424133,452.913025 283.455109,456.188416 287.496918,459.919128 
	C288.234009,456.035034 288.967133,452.335236 289.635345,448.623779 
	C293.452026,427.424652 297.181152,406.209442 301.097595,385.028809 
	C302.534149,377.259583 304.401855,369.570099 306.081543,361.911652 
	C306.081543,361.911652 306.015076,361.897400 306.440613,362.506958 
	C307.419464,362.675354 308.398315,362.843781 310.104401,363.100159 
	C320.429871,364.647552 330.726990,367.255798 341.086395,367.532349 
	C366.531708,368.211639 392.005798,367.852417 417.468140,367.817810 
	C421.448181,367.812408 425.455139,367.530365 429.402679,367.015991 
	C452.116913,364.056061 464.414246,352.728119 466.487976,331.470764 
	C468.809082,307.677246 457.715515,286.950867 429.541534,284.136597 
	C416.048462,282.788757 402.934052,284.599182 390.644226,290.529938 
	C381.818787,294.788849 373.210663,299.498016 363.839844,304.074768 
	C363.544037,304.379150 363.248230,304.683533 362.976257,304.963928 
z"/>
<path fill="#EE2A7B" opacity="1.000000" stroke="none" 
	d="
M360.544586,306.032593 
	C360.544586,306.032593 360.570282,306.039398 360.947815,306.045593 
	C361.886536,305.686279 362.447723,305.320740 363.008911,304.955200 
	C363.008911,304.955200 362.976257,304.963928 363.287781,304.935394 
	C363.901428,304.606689 364.203522,304.306519 364.505615,304.006317 
	C373.210663,299.498016 381.818787,294.788849 390.644226,290.529938 
	C402.934052,284.599182 416.048462,282.788757 429.541534,284.136597 
	C457.715515,286.950867 468.809082,307.677246 466.487976,331.470764 
	C464.414246,352.728119 452.116913,364.056061 429.402679,367.015991 
	C425.455139,367.530365 421.448181,367.812408 417.468140,367.817810 
	C392.005798,367.852417 366.531708,368.211639 341.086395,367.532349 
	C330.726990,367.255798 320.429871,364.647552 309.466736,362.798157 
	C307.891083,362.296570 306.953064,362.096985 306.015076,361.897400 
	C306.015076,361.897400 306.081543,361.911652 305.916504,361.577118 
	C295.816925,357.105988 289.109009,349.505463 283.595673,339.546417 
	C279.475250,362.090637 275.542480,383.607849 271.415741,406.186554 
	C268.603027,403.211090 266.642609,401.204498 264.755829,399.130890 
	C244.356979,376.712097 223.940018,354.309540 203.626556,331.813599 
	C201.661209,329.637085 199.814133,328.574310 196.797440,328.996246 
	C170.942734,332.612518 145.073532,336.125549 119.204002,339.635162 
	C111.951180,340.619080 104.682915,341.489288 96.438072,342.536621 
	C100.224960,335.694000 103.353081,330.041718 106.889404,324.306091 
	C117.181831,323.062897 127.086060,322.050415 136.946136,320.712555 
	C157.475464,317.927124 177.973160,314.906586 198.512894,312.203369 
	C200.135025,311.989868 202.381470,313.070404 203.647446,314.275024 
	C206.890533,317.360931 209.739014,320.860779 212.754547,324.186707 
	C225.488159,338.230957 238.202942,352.292328 250.971939,366.304291 
	C255.967804,371.786499 261.088074,377.155304 266.775299,383.243347 
	C270.348572,363.194733 273.747162,344.126160 277.369873,325.224182 
	C278.078308,325.796875 278.562653,326.203003 279.370026,326.880035 
	C279.183502,325.159515 279.062134,324.039825 278.968170,322.946808 
	C278.995605,322.973480 278.919128,322.971069 279.157532,322.852051 
	C279.297821,322.166229 279.199707,321.599396 279.068207,320.660156 
	C278.642181,319.133942 278.249542,317.980164 277.879730,316.372284 
	C277.969940,314.587524 278.096710,313.256805 278.096161,311.926147 
	C278.074738,257.604675 278.041840,203.283188 278.027893,148.563690 
	C279.002380,144.792526 279.959381,141.419357 281.228027,137.887405 
	C282.113312,136.563721 282.686951,135.398834 283.364288,134.023361 
	C281.626312,134.869019 280.493866,135.420029 279.267700,135.533295 
	C278.442047,126.706535 277.710114,118.317520 277.264648,109.761215 
	C278.834869,108.414055 280.118652,107.234177 281.942749,105.557709 
	C282.999634,114.559814 283.948669,122.643333 284.813049,130.005554 
	C291.121704,127.083328 296.807587,124.146034 302.736298,121.830482 
	C305.733368,120.659912 309.169678,120.613983 312.407410,120.059570 
	C312.657562,120.177444 312.919495,120.216728 313.756958,120.355545 
	C316.977966,120.707298 319.635254,120.880920 322.292572,121.054535 
	C332.656677,123.743164 340.922272,129.103485 345.645447,139.893341 
	C346.215698,141.530472 346.580322,142.509918 346.944946,143.489365 
	C346.944946,143.489365 346.874969,143.608826 346.898346,144.131180 
	C347.236572,151.959763 347.770874,159.264343 347.825806,166.572525 
	C348.002228,190.043076 348.001556,213.514954 347.985840,237.450058 
	C347.971771,250.614700 348.041077,263.315613 348.027191,276.477905 
	C347.926727,284.180023 347.723602,291.427765 347.995483,298.657623 
	C348.087616,301.108215 349.380005,303.513702 350.123901,305.939789 
	C350.123901,305.939789 350.020325,305.978577 350.112122,306.199036 
	C350.499146,306.589264 350.794342,306.759033 351.089539,306.928802 
	C351.089539,306.928802 351.021820,306.986389 351.258911,307.273895 
	C353.835541,307.380402 356.175079,307.199402 358.514618,307.018402 
	C358.514618,307.018402 358.560181,307.033539 358.969452,306.996460 
	C359.767334,306.650421 360.155975,306.341492 360.544586,306.032593 
M282.335083,337.583954 
	C282.470276,337.050720 282.614319,336.518982 282.707611,335.978516 
	C282.711273,335.957397 282.229858,335.852539 281.974457,335.786713 
	C281.908386,336.398682 281.842316,337.010651 282.335083,337.583954 
z"/>
<path fill="#FAF48D" opacity="1.000000" stroke="none" 
	d="
M106.481201,324.389435 
	C103.353081,330.041718 100.224960,335.694000 96.438072,342.536621 
	C104.682915,341.489288 111.951180,340.619080 119.204002,339.635162 
	C145.073532,336.125549 170.942734,332.612518 196.797440,328.996246 
	C199.814133,328.574310 201.661209,329.637085 203.626556,331.813599 
	C223.940018,354.309540 244.356979,376.712097 264.755829,399.130890 
	C266.642609,401.204498 268.603027,403.211090 271.415741,406.186554 
	C275.542480,383.607849 279.475250,362.090637 283.595673,339.546417 
	C289.109009,349.505463 295.816925,357.105988 305.912170,361.543396 
	C304.401855,369.570099 302.534149,377.259583 301.097595,385.028809 
	C297.181152,406.209442 293.452026,427.424652 289.635345,448.623779 
	C288.967133,452.335236 288.234009,456.035034 287.496918,459.919128 
	C283.455109,456.188416 279.424133,452.913025 275.922272,449.145752 
	C267.779846,440.386292 259.931915,431.353973 251.894104,422.496216 
	C232.462082,401.081818 213.040161,379.657501 193.426682,358.410217 
	C192.032730,356.900116 189.009781,355.933258 186.918121,356.181091 
	C171.453094,358.013489 156.031540,360.213409 140.597595,362.307343 
	C124.181770,364.534424 107.774170,366.823517 91.350250,368.988983 
	C77.881897,370.764679 64.394875,372.398773 50.456665,374.047089 
	C49.997200,373.998535 49.965450,373.970825 49.965446,373.970825 
	C52.652752,368.680450 55.126526,363.268341 58.061836,358.119354 
	C77.838760,323.427551 97.759438,288.817474 117.433769,254.067825 
	C118.523323,252.143402 118.724449,248.810883 117.826485,246.813965 
	C112.231361,234.371216 106.237671,222.106628 100.314728,209.812561 
	C86.732803,181.621033 73.113663,153.447433 59.522099,125.260551 
	C59.099274,124.383690 58.813957,123.440544 58.077293,121.517296 
	C65.066803,122.894890 71.333611,124.072807 77.575714,125.369659 
	C116.560181,133.469025 155.530441,141.637650 194.546753,149.580231 
	C196.403671,149.958237 199.217529,149.010880 200.632462,147.672760 
	C218.656586,130.627197 236.492264,113.382538 254.404526,96.218437 
	C269.309540,81.935951 284.250854,67.691330 299.185547,53.439861 
	C299.653778,52.993053 300.226593,52.655849 301.484680,51.723652 
	C302.352173,58.542938 303.223236,64.800400 303.931610,71.076225 
	C305.643219,86.241035 307.229553,101.420319 309.040131,116.573006 
	C309.182953,117.768288 310.671906,118.802727 311.971313,119.985741 
	C309.169678,120.613983 305.733368,120.659912 302.736298,121.830482 
	C296.807587,124.146034 291.121704,127.083328 284.813049,130.005554 
	C283.948669,122.643333 282.999634,114.559814 281.942749,105.557709 
	C280.118652,107.234177 278.834869,108.414055 277.117981,109.469086 
	C274.266235,106.389915 273.227112,109.539574 272.112854,110.602180 
	C259.822174,122.323166 247.677399,134.197006 235.400330,145.932388 
	C226.621124,154.324249 217.802704,162.682556 208.747223,170.770813 
	C207.181152,172.169617 204.166916,173.042313 202.122055,172.638062 
	C184.382614,169.131119 166.716385,165.255188 149.019073,161.533264 
	C136.934006,158.991638 124.834099,156.520660 112.302788,153.927460 
	C112.959808,155.969269 113.411148,157.371902 113.478256,158.802551 
	C109.975906,158.153076 106.857788,157.475586 102.881783,156.611694 
	C105.543343,162.219757 107.710106,166.875504 109.952240,171.494675 
	C122.646606,197.647156 135.359039,223.790848 148.001251,250.290176 
	C140.780060,263.196320 133.564972,275.717194 126.482552,288.312683 
	C119.743362,300.297760 113.142731,312.360718 106.481201,324.389435 
z"/>
<path fill="#FAF48D" opacity="1.000000" stroke="none" 
	d="
M350.164032,305.586914 
	C349.380005,303.513702 348.087616,301.108215 347.995483,298.657623 
	C347.723602,291.427765 347.926727,284.180023 348.248840,276.477753 
	C348.553680,276.016205 348.997101,275.999603 349.369507,275.996704 
	C361.687927,270.654572 373.633911,265.315338 386.411682,259.604340 
	C380.390350,256.413940 375.152985,253.638916 369.940979,250.541199 
	C369.844391,249.246292 370.047363,247.655655 369.551483,247.395126 
	C362.735535,243.814087 355.823303,240.416306 348.718323,236.977219 
	C348.501953,236.980911 348.069183,236.986328 348.069183,236.986328 
	C348.001556,213.514954 348.002228,190.043076 347.825806,166.572525 
	C347.770874,159.264343 347.236572,151.959763 346.944275,144.182953 
	C347.631012,147.407959 348.824493,151.097183 348.868866,154.800186 
	C349.074280,171.943802 349.060059,189.092300 348.878784,206.236450 
	C348.841614,209.752365 350.064667,211.491425 353.128510,213.118652 
	C381.616486,228.248688 410.008514,243.559341 438.417908,258.837128 
	C439.851929,259.608307 441.189850,260.558167 443.287811,261.873199 
	C433.941833,266.100555 425.219238,270.070465 416.476501,273.995575 
	C395.554993,283.388397 374.613342,292.736633 353.721527,302.195007 
	C352.367889,302.807861 351.368408,304.202850 350.164032,305.586914 
z"/>
<path fill="#FAF48D" opacity="1.000000" stroke="none" 
	d="
M321.967285,120.760963 
	C319.635254,120.880920 316.977966,120.707298 313.948914,120.296555 
	C316.265472,120.195419 318.953766,120.331406 321.967285,120.760963 
z"/>
<path fill="#FAF48D" opacity="1.000000" stroke="none" 
	d="
M358.035828,307.006073 
	C356.175079,307.199402 353.835541,307.380402 351.269470,307.230713 
	C353.214294,306.931274 355.385651,306.962494 358.035828,307.006073 
z"/>
<path fill="#FAF48D" opacity="1.000000" stroke="none" 
	d="
M346.975708,143.076813 
	C346.580322,142.509918 346.215698,141.530472 345.856079,140.140198 
	C346.242859,140.707657 346.624695,141.685959 346.975708,143.076813 
z"/>
<path fill="#FAF48D" opacity="1.000000" stroke="none" 
	d="
M306.227844,362.202148 
	C306.953064,362.096985 307.891083,362.296570 309.103119,362.754181 
	C308.398315,362.843781 307.419464,362.675354 306.227844,362.202148 
z"/>
<path fill="#FAF48D" opacity="1.000000" stroke="none" 
	d="
M362.662231,304.939453 
	C362.447723,305.320740 361.886536,305.686279 360.961121,306.046204 
	C361.169739,305.668304 361.742645,305.296021 362.662231,304.939453 
z"/>
<path fill="#FAF48D" opacity="1.000000" stroke="none" 
	d="
M351.020996,306.677704 
	C350.794342,306.759033 350.499146,306.589264 350.150421,306.159119 
	C350.382080,306.074738 350.667236,306.250671 351.020996,306.677704 
z"/>
<path fill="#FAF48D" opacity="1.000000" stroke="none" 
	d="
M360.169556,306.071228 
	C360.155975,306.341492 359.767334,306.650421 358.985657,306.978699 
	C358.993256,306.701996 359.393890,306.405945 360.169556,306.071228 
z"/>
<path fill="#FAF48D" opacity="1.000000" stroke="none" 
	d="
M364.172729,304.040527 
	C364.203522,304.306519 363.901428,304.606689 363.275879,304.947388 
	C363.248230,304.683533 363.544037,304.379150 364.172729,304.040527 
z"/>
<path fill="#FAF48D" opacity="1.000000" stroke="none" 
	d="
M50.011044,374.014343 
	C49.904308,374.040649 49.783730,374.051178 49.814301,374.016266 
	C49.965450,373.970825 49.997200,373.998535 50.011044,374.014343 
z"/>
<path fill="#ED84B7" opacity="1.000000" stroke="none" 
	d="
M113.862488,158.774536 
	C113.411148,157.371902 112.959808,155.969269 112.302788,153.927460 
	C124.834099,156.520660 136.934006,158.991638 149.019073,161.533264 
	C166.716385,165.255188 184.382614,169.131119 202.122055,172.638062 
	C204.166916,173.042313 207.181152,172.169617 208.747223,170.770813 
	C217.802704,162.682556 226.621124,154.324249 235.400330,145.932388 
	C247.677399,134.197006 259.822174,122.323166 272.112854,110.602180 
	C273.227112,109.539574 274.266235,106.389915 276.831543,109.636368 
	C277.710114,118.317520 278.442047,126.706535 279.208496,135.838928 
	C279.800781,137.070282 280.358582,137.558243 280.916382,138.046188 
	C279.959381,141.419357 279.002380,144.792526 277.711304,148.846497 
	C277.239532,151.665298 276.989410,153.802902 276.981750,155.941360 
	C276.917053,174.020035 276.896576,192.098846 276.476440,210.125610 
	C275.076294,208.978577 273.305542,207.973404 273.163269,206.774902 
	C271.307037,191.139511 269.694092,175.475357 267.992249,159.821442 
	C267.178833,152.339417 266.306885,144.863754 265.379120,136.656952 
	C263.666473,138.172134 262.540375,139.102982 261.487122,140.110016 
	C245.973465,154.942719 230.512009,169.830719 214.883423,184.541183 
	C213.618286,185.732025 211.072662,186.487457 209.376266,186.153595 
	C190.022156,182.344589 170.721542,178.264404 151.395203,174.312714 
	C148.460144,173.712570 145.466782,173.397690 141.675186,172.826553 
	C142.741501,175.213455 143.305786,176.567780 143.942154,177.887299 
	C152.830872,196.318619 161.672440,214.773132 170.680145,233.146164 
	C172.233139,236.313812 172.313263,238.962891 170.519333,242.033661 
	C164.145279,252.944489 157.930191,263.948364 151.679016,274.930725 
	C146.856491,283.403198 142.070129,291.896271 137.057220,300.751953 
	C138.416733,300.852112 139.083282,301.018433 139.714554,300.930756 
	C160.553772,298.036987 181.374130,294.997192 202.243454,292.342072 
	C205.202072,291.965698 209.448395,292.390472 211.301926,294.242615 
	C219.875916,302.810028 227.797562,312.028809 235.987320,320.982788 
	C243.024170,328.676239 250.107498,336.327148 257.603577,344.467407 
	C258.276337,342.772186 258.779694,341.932007 258.942688,341.030273 
	C262.656494,320.484680 266.440552,299.950592 269.930969,279.366791 
	C270.678741,274.957153 272.170807,271.876068 276.888977,271.560547 
	C276.954407,285.217407 276.953522,298.413452 277.050568,311.608826 
	C277.063354,313.349884 277.575867,315.087280 277.856903,316.826355 
	C278.249542,317.980164 278.642181,319.133942 279.006531,320.979553 
	C278.958527,322.104614 278.938843,322.537842 278.919128,322.971069 
	C278.919128,322.971069 278.995605,322.973480 278.652039,323.006500 
	C277.920898,323.712189 277.533295,324.384888 277.145752,325.057587 
	C273.747162,344.126160 270.348572,363.194733 266.775299,383.243347 
	C261.088074,377.155304 255.967804,371.786499 250.971939,366.304291 
	C238.202942,352.292328 225.488159,338.230957 212.754547,324.186707 
	C209.739014,320.860779 206.890533,317.360931 203.647446,314.275024 
	C202.381470,313.070404 200.135025,311.989868 198.512894,312.203369 
	C177.973160,314.906586 157.475464,317.927124 136.946136,320.712555 
	C127.086060,322.050415 117.181831,323.062897 106.889389,324.306091 
	C113.142731,312.360718 119.743362,300.297760 126.482552,288.312683 
	C133.564972,275.717194 140.780060,263.196320 148.272980,250.095703 
	C154.003326,243.561539 152.776321,237.826340 149.233139,231.105377 
	C142.048325,217.476822 135.831360,203.340500 129.101196,189.468918 
	C124.115128,179.192093 118.948616,169.002808 113.862488,158.774536 
z"/>
<path fill="#F9EB8C" opacity="1.000000" stroke="none" 
	d="
M277.879730,316.372284 
	C277.575867,315.087280 277.063354,313.349884 277.050568,311.608826 
	C276.953522,298.413452 276.954407,285.217407 276.933960,271.083954 
	C276.916351,250.156784 276.889587,230.167206 276.862823,210.177628 
	C276.896576,192.098846 276.917053,174.020035 276.981750,155.941360 
	C276.989410,153.802902 277.239532,151.665298 277.693817,149.244507 
	C278.041840,203.283188 278.074738,257.604675 278.096161,311.926147 
	C278.096710,313.256805 277.969940,314.587524 277.879730,316.372284 
z"/>
<path fill="#F8DC8F" opacity="1.000000" stroke="none" 
	d="
M347.985840,237.450058 
	C348.069183,236.986328 348.501953,236.980911 348.746155,237.447632 
	C349.065857,244.693832 349.141388,251.473312 349.142517,258.699310 
	C349.044464,264.763763 349.020782,270.381683 348.997101,275.999603 
	C348.997101,275.999603 348.553680,276.016205 348.332031,276.016357 
	C348.041077,263.315613 347.971771,250.614700 347.985840,237.450058 
z"/>
<path fill="#EE317D" opacity="1.000000" stroke="none" 
	d="
M281.228027,137.887405 
	C280.358582,137.558243 279.800781,137.070282 279.302185,136.276688 
	C280.493866,135.420029 281.626312,134.869019 283.364288,134.023361 
	C282.686951,135.398834 282.113312,136.563721 281.228027,137.887405 
z"/>
<path fill="#EE2C7C" opacity="1.000000" stroke="none" 
	d="
M277.369873,325.224182 
	C277.533295,324.384888 277.920898,323.712189 278.624634,322.979828 
	C279.062134,324.039825 279.183502,325.159515 279.370026,326.880035 
	C278.562653,326.203003 278.078308,325.796875 277.369873,325.224182 
z"/>
<path fill="#EE2C7C" opacity="1.000000" stroke="none" 
	d="
M282.055664,337.603271 
	C281.842316,337.010651 281.908386,336.398682 281.974487,335.786713 
	C282.229858,335.852539 282.711273,335.957397 282.707611,335.978516 
	C282.614319,336.518982 282.470276,337.050720 282.055664,337.603271 
z"/>
<path fill="#EE2C7C" opacity="1.000000" stroke="none" 
	d="
M279.157532,322.852051 
	C278.938843,322.537842 278.958527,322.104614 279.039917,321.351990 
	C279.199707,321.599396 279.297821,322.166229 279.157532,322.852051 
z"/>
<path fill="#EE2D7C" opacity="1.000000" stroke="none" 
	d="
M113.478256,158.802551 
	C118.948616,169.002808 124.115128,179.192093 129.101196,189.468918 
	C135.831360,203.340500 142.048325,217.476822 149.233139,231.105377 
	C152.776321,237.826340 154.003326,243.561539 148.337067,249.743042 
	C135.359039,223.790848 122.646606,197.647156 109.952240,171.494675 
	C107.710106,166.875504 105.543343,162.219757 102.881783,156.611694 
	C106.857788,157.475586 109.975906,158.153076 113.478256,158.802551 
z"/>
<path fill="#EE2C7C" opacity="1.000000" stroke="none" 
	d="
M349.369507,275.996704 
	C349.020782,270.381683 349.044464,264.763763 349.499084,258.623230 
	C354.909027,255.936310 359.850372,253.677704 364.889740,251.664429 
	C366.426361,251.050522 368.232758,251.111832 369.915619,250.863892 
	C375.152985,253.638916 380.390350,256.413940 386.411682,259.604340 
	C373.633911,265.315338 361.687927,270.654572 349.369507,275.996704 
z"/>
<path fill="#ED83B6" opacity="1.000000" stroke="none" 
	d="
M369.940979,250.541199 
	C368.232758,251.111832 366.426361,251.050522 364.889740,251.664429 
	C359.850372,253.677704 354.909027,255.936310 349.573425,258.176697 
	C349.141388,251.473312 349.065857,244.693832 348.962524,237.443939 
	C355.823303,240.416306 362.735535,243.814087 369.551483,247.395126 
	C370.047363,247.655655 369.844391,249.246292 369.940979,250.541199 
z"/>
<path fill="#F3E3E4" opacity="1.000000" stroke="none" 
	d="
M276.476440,210.125610 
	C276.889587,230.167206 276.916351,250.156784 276.898163,270.622986 
	C272.170807,271.876068 270.678741,274.957153 269.930969,279.366791 
	C266.440552,299.950592 262.656494,320.484680 258.942688,341.030273 
	C258.779694,341.932007 258.276337,342.772186 257.603577,344.467407 
	C250.107498,336.327148 243.024170,328.676239 235.987320,320.982788 
	C227.797562,312.028809 219.875916,302.810028 211.301926,294.242615 
	C209.448395,292.390472 205.202072,291.965698 202.243454,292.342072 
	C181.374130,294.997192 160.553772,298.036987 139.714554,300.930756 
	C139.083282,301.018433 138.416733,300.852112 137.057220,300.751953 
	C142.070129,291.896271 146.856491,283.403198 151.679016,274.930725 
	C157.930191,263.948364 164.145279,252.944489 170.519333,242.033661 
	C172.313263,238.962891 172.233139,236.313812 170.680145,233.146164 
	C161.672440,214.773132 152.830872,196.318619 143.942154,177.887299 
	C143.305786,176.567780 142.741501,175.213455 141.675186,172.826553 
	C145.466782,173.397690 148.460144,173.712570 151.395203,174.312714 
	C170.721542,178.264404 190.022156,182.344589 209.376266,186.153595 
	C211.072662,186.487457 213.618286,185.732025 214.883423,184.541183 
	C230.512009,169.830719 245.973465,154.942719 261.487122,140.110016 
	C262.540375,139.102982 263.666473,138.172134 265.379120,136.656952 
	C266.306885,144.863754 267.178833,152.339417 267.992249,159.821442 
	C269.694092,175.475357 271.307037,191.139511 273.163269,206.774902 
	C273.305542,207.973404 275.076294,208.978577 276.476440,210.125610 
z"/>
</svg>