{
  "accessors": [
    {
      "bufferView": 2,
      "componentType": 5126,
      "count": 10686,
      "max": [
        0.9872310161590576,
        1.342184066772461,
        0.9872307181358337
      ],
      "min": [
        -0.9872305393218994,
        -0.9975767135620117,
        -0.9872310161590576
      ],
      "type": "VEC3"
    },
    {
      "bufferView": 2,
      "byteOffset": 128232,
      "componentType": 5126,
      "count": 10686,
      "type": "VEC3"
    },
    {
      "bufferView": 1,
      "componentType": 5126,
      "count": 10686,
      "type": "VEC2"
    },
    {
      "bufferView": 0,
      "componentType": 5125,
      "count": 57984,
      "type": "SCALAR"
    },
    {
      "bufferView": 2,
      "byteOffset": 256464,
      "componentType": 5126,
      "count": 1214,
      "max": [
        0.23647138476371765,
        0.018444880843162537,
        1.0466152429580688
      ],
      "min": [
        -0.23647132515907288,
        -0.20740173757076263,
        0.9170058369636536
      ],
      "type": "VEC3"
    },
    {
      "bufferView": 2,
      "byteOffset": 271032,
      "componentType": 5126,
      "count": 1214,
      "type": "VEC3"
    },
    {
      "bufferView": 1,
      "byteOffset": 85488,
      "componentType": 5126,
      "count": 1214,
      "type": "VEC2"
    },
    {
      "bufferView": 0,
      "byteOffset": 231936,
      "componentType": 5125,
      "count": 5760,
      "type": "SCALAR"
    },
    {
      "bufferView": 2,
      "byteOffset": 285600,
      "componentType": 5126,
      "count": 1346,
      "max": [
        0.572752833366394,
        1.2495934963226318,
        1.0886904001235962
      ],
      "min": [
        -0.5727529525756836,
        -0.07202036678791046,
        0.40440115332603455
      ],
      "type": "VEC3"
    },
    {
      "bufferView": 2,
      "byteOffset": 301752,
      "componentType": 5126,
      "count": 1346,
      "type": "VEC3"
    },
    {
      "bufferView": 1,
      "byteOffset": 95200,
      "componentType": 5126,
      "count": 1346,
      "type": "VEC2"
    },
    {
      "bufferView": 0,
      "byteOffset": 254976,
      "componentType": 5125,
      "count": 6144,
      "type": "SCALAR"
    },
    {
      "bufferView": 2,
      "byteOffset": 317904,
      "componentType": 5126,
      "count": 81,
      "max": [
        0.09727683663368225,
        -0.08913321793079376,
        0.9850131869316101
      ],
      "min": [
        -0.09727685153484344,
        -0.34881889820098877,
        0.9262554049491882
      ],
      "type": "VEC3"
    },
    {
      "bufferView": 2,
      "byteOffset": 318876,
      "componentType": 5126,
      "count": 81,
      "type": "VEC3"
    },
    {
      "bufferView": 1,
      "byteOffset": 105968,
      "componentType": 5126,
      "count": 81,
      "type": "VEC2"
    },
    {
      "bufferView": 0,
      "byteOffset": 279552,
      "componentType": 5125,
      "count": 384,
      "type": "SCALAR"
    },
    {
      "bufferView": 2,
      "byteOffset": 319848,
      "componentType": 5126,
      "count": 3158,
      "max": [
        0.616605281829834,
        0.2967083752155304,
        0.977789044380188
      ],
      "min": [
        -0.616605281829834,
        -0.2339949905872345,
        0.8672731518745422
      ],
      "type": "VEC3"
    },
    {
      "bufferView": 2,
      "byteOffset": 357744,
      "componentType": 5126,
      "count": 3158,
      "type": "VEC3"
    },
    {
      "bufferView": 1,
      "byteOffset": 106616,
      "componentType": 5126,
      "count": 3158,
      "type": "VEC2"
    },
    {
      "bufferView": 0,
      "byteOffset": 281088,
      "componentType": 5125,
      "count": 12768,
      "type": "SCALAR"
    },
    {
      "bufferView": 2,
      "byteOffset": 395640,
      "componentType": 5126,
      "count": 10295,
      "max": [
        0.7445806860923767,
        1.0236287117004395,
        0.9001139402389526
      ],
      "min": [
        -0.7445803284645081,
        -1.1441518068313599,
        -1.3830137252807617
      ],
      "type": "VEC3"
    },
    {
      "bufferView": 2,
      "byteOffset": 519180,
      "componentType": 5126,
      "count": 10295,
      "type": "VEC3"
    },
    {
      "bufferView": 1,
      "byteOffset": 131880,
      "componentType": 5126,
      "count": 10295,
      "type": "VEC2"
    },
    {
      "bufferView": 0,
      "byteOffset": 332160,
      "componentType": 5125,
      "count": 56256,
      "type": "SCALAR"
    }
  ],
  "asset": {
    "generator": "fab-model-conversion",
    "version": "2.0"
  },
  "bufferViews": [
    {
      "buffer": 0,
      "byteLength": 557184,
      "target": 34963
    },
    {
      "buffer": 0,
      "byteLength": 214240,
      "byteOffset": 557184,
      "byteStride": 8,
      "target": 34962
    },
    {
      "buffer": 0,
      "byteLength": 642720,
      "byteOffset": 771424,
      "byteStride": 12,
      "target": 34962
    }
  ],
  "buffers": [
    {
      "byteLength": 1414144,
      "uri": "scene.bin"
    }
  ],
  "materials": [
    {
      "doubleSided": true,
      "name": "Material.004",
      "pbrMetallicRoughness": {
        "baseColorFactor": [
          1.0,
          0.550444,
          0.285296,
          1.0
        ],
        "metallicFactor": 0.0
      }
    },
    {
      "doubleSided": true,
      "name": "Material.003",
      "pbrMetallicRoughness": {
        "metallicFactor": 0.0,
        "roughnessFactor": 0.5
      }
    },
    {
      "doubleSided": true,
      "name": "Matte_Pink_Material",
      "pbrMetallicRoughness": {
        "baseColorFactor": [
          1.0,
          0.0792023,
          0.0792023,
          1.0
        ],
        "metallicFactor": 0.0
      }
    },
    {
      "doubleSided": true,
      "name": "Matte_Pink_Material.001",
      "pbrMetallicRoughness": {
        "baseColorFactor": [
          0.178862,
          0.0315145,
          0.0315145,
          1.0
        ],
        "metallicFactor": 0.0
      }
    },
    {
      "doubleSided": true,
      "name": "Material.002",
      "pbrMetallicRoughness": {
        "baseColorFactor": [
          0.0134102,
          0.0134102,
          0.0134102,
          1.0
        ],
        "metallicFactor": 0.0
      }
    },
    {
      "doubleSided": true,
      "name": "Material.006",
      "pbrMetallicRoughness": {
        "baseColorFactor": [
          0.854978,
          0.854978,
          0.854978,
          1.0
        ],
        "metallicFactor": 0.0
      }
    }
  ],
  "meshes": [
    {
      "name": "Object_0",
      "primitives": [
        {
          "attributes": {
            "NORMAL": 1,
            "POSITION": 0,
            "TEXCOORD_0": 2
          },
          "indices": 3,
          "material": 0,
          "mode": 4
        }
      ]
    },
    {
      "name": "Object_1",
      "primitives": [
        {
          "attributes": {
            "NORMAL": 5,
            "POSITION": 4,
            "TEXCOORD_0": 6
          },
          "indices": 7,
          "material": 1,
          "mode": 4
        }
      ]
    },
    {
      "name": "Object_2",
      "primitives": [
        {
          "attributes": {
            "NORMAL": 9,
            "POSITION": 8,
            "TEXCOORD_0": 10
          },
          "indices": 11,
          "material": 2,
          "mode": 4
        }
      ]
    },
    {
      "name": "Object_3",
      "primitives": [
        {
          "attributes": {
            "NORMAL": 13,
            "POSITION": 12,
            "TEXCOORD_0": 14
          },
          "indices": 15,
          "material": 3,
          "mode": 4
        }
      ]
    },
    {
      "name": "Object_4",
      "primitives": [
        {
          "attributes": {
            "NORMAL": 17,
            "POSITION": 16,
            "TEXCOORD_0": 18
          },
          "indices": 19,
          "material": 4,
          "mode": 4
        }
      ]
    },
    {
      "name": "Object_5",
      "primitives": [
        {
          "attributes": {
            "NORMAL": 21,
            "POSITION": 20,
            "TEXCOORD_0": 22
          },
          "indices": 23,
          "material": 5,
          "mode": 4
        }
      ]
    }
  ],
  "nodes": [
    {
      "children": [
        1
      ],
      "matrix": [
        1.0,
        0.0,
        0.0,
        0.0,
        0.0,
        2.220446049250313e-16,
        -1.0,
        0.0,
        0.0,
        1.0,
        2.220446049250313e-16,
        0.0,
        0.0,
        0.0,
        0.0,
        1.0
      ],
      "name": "Sketchfab_model"
    },
    {
      "children": [
        2
      ],
      "name": "root"
    },
    {
      "children": [
        3
      ],
      "matrix": [
        1.0,
        0.0,
        0.0,
        0.0,
        0.0,
        2.220446049250313e-16,
        1.0,
        0.0,
        0.0,
        -1.0,
        2.220446049250313e-16,
        0.0,
        0.0,
        0.0,
        0.0,
        1.0
      ],
      "name": "GLTF_SceneRootNode"
    },
    {
      "children": [
        4,
        5,
        6,
        7,
        8,
        9
      ],
      "matrix": [
        1.0,
        0.0,
        -0.0,
        0.0,
        -0.0,
        0.9600624335312055,
        -0.27978585332739697,
        0.0,
        0.0,
        0.27978585332739697,
        0.9600624335312055,
        0.0,
        0.0,
        0.0,
        0.0,
        1.0
      ],
      "name": "Rabbit_0"
    },
    {
      "mesh": 0,
      "name": "Object_4"
    },
    {
      "mesh": 1,
      "name": "Object_5"
    },
    {
      "mesh": 2,
      "name": "Object_6"
    },
    {
      "mesh": 3,
      "name": "Object_7"
    },
    {
      "mesh": 4,
      "name": "Object_8"
    },
    {
      "mesh": 5,
      "name": "Object_9"
    }
  ],
  "scene": 0,
  "scenes": [
    {
      "name": "Sketchfab_Scene",
      "nodes": [
        0
      ]
    }
  ]
}
