<svg version="1.1" id="Layer_1" xmlns="http://www.w3.org/2000/svg" xmlns:xlink="http://www.w3.org/1999/xlink" x="0px" y="0px"
	 width="100%" viewBox="0 0 475 475" enable-background="new 0 0 475 475" xml:space="preserve">
<path fill="#FFFFFE" opacity="1.000000" stroke="none" 
	d="
M476.000000,210.000000 
	C476.000000,228.687561 476.000000,247.375122 475.627625,266.228821 
	C474.174469,271.725861 472.911438,277.027313 472.043579,282.392670 
	C467.679077,309.374878 457.842010,334.483887 444.283478,357.924835 
	C432.022308,379.122742 416.784576,398.162750 398.206207,414.529053 
	C384.754547,426.379120 370.563904,436.876953 354.941162,445.648743 
	C328.093079,460.723206 299.655579,470.712769 268.968475,474.076965 
	C268.250702,474.155670 267.653473,475.334381 267.000000,476.000000 
	C248.312439,476.000000 229.624878,476.000000 210.771149,475.627563 
	C205.273987,474.174347 199.972427,472.911499 194.606979,472.043488 
	C167.624496,467.678497 142.514893,457.842010 119.073952,444.282349 
	C97.876114,432.020233 78.835594,416.782806 62.468803,398.204224 
	C50.619545,384.753632 40.124485,370.562866 31.352627,354.942230 
	C16.276154,328.094513 6.287630,299.656067 2.923049,268.968536 
	C2.844348,268.250732 1.665627,267.653473 0.999998,267.000000 
	C1.000000,248.312439 1.000000,229.624878 1.372410,210.771164 
	C2.825628,205.274139 4.088684,199.972748 4.956520,194.607422 
	C9.320888,167.625168 19.157974,142.516174 32.716465,119.075218 
	C44.977592,97.877251 60.215408,78.837364 78.793747,62.471050 
	C92.245399,50.621014 106.436005,40.123161 122.058746,31.351368 
	C148.906799,16.276827 177.344345,6.287279 208.031448,2.923048 
	C208.749283,2.844352 209.346512,1.665629 210.000000,0.999999 
	C228.687561,1.000000 247.375122,1.000000 266.228821,1.372383 
	C271.725800,2.825591 277.027191,4.088675 282.392517,4.956511 
	C309.374786,9.320857 334.483795,19.157953 357.924774,32.716423 
	C379.122772,44.977535 398.162628,60.215397 414.528961,78.793716 
	C426.378998,92.245399 436.876862,106.435989 445.648682,122.058739 
	C460.723206,148.906784 470.712738,177.344330 474.076965,208.031433 
	C474.155670,208.749268 475.334351,209.346512 476.000000,210.000000 
M329.810699,120.531906 
	C329.507538,120.329018 329.204376,120.126129 328.481781,119.424263 
	C323.210724,112.994537 315.931183,110.167702 307.569489,107.552078 
	C304.927917,107.364616 302.207489,107.493393 299.676544,106.862274 
	C298.319153,106.523796 296.384674,104.985413 296.245300,103.806976 
	C294.334839,87.654579 292.718689,71.467651 290.968658,55.295868 
	C290.419586,50.222027 289.687775,45.167961 288.918030,39.155354 
	C286.851044,40.942211 285.946808,41.660362 285.113892,42.453381 
	C271.253326,55.650215 257.373444,68.826958 243.555038,82.067825 
	C225.285736,99.573570 207.007523,117.071060 188.893982,134.737045 
	C186.428253,137.141861 184.234283,137.696793 181.013138,137.019012 
	C147.701828,130.010101 114.367722,123.109375 81.036301,116.196159 
	C69.558723,113.815613 58.070908,111.484398 45.588951,108.925926 
	C46.399368,111.120186 46.788727,112.466835 47.377644,113.719681 
	C50.351898,120.047081 53.345451,126.365860 56.391521,132.658966 
	C72.714668,166.382187 89.014664,200.116806 105.461937,233.779434 
	C106.889580,236.701385 106.772911,238.892929 105.198883,241.626099 
	C85.855476,275.214264 66.593712,308.849457 47.337486,342.487793 
	C43.816051,348.639282 40.413757,354.859009 36.638828,361.615814 
	C38.568584,361.701141 39.693554,361.921875 40.767097,361.772644 
	C56.543633,359.579712 72.300308,357.240234 88.087471,355.128265 
	C117.200798,351.233398 146.325256,347.418976 175.468796,343.759796 
	C177.206543,343.541595 179.725922,344.459412 180.915283,345.743561 
	C193.908005,359.771820 206.722656,373.965302 219.555008,388.141724 
	C227.140610,396.521851 234.627625,404.991486 242.237213,413.349640 
	C252.722916,424.866821 263.282562,436.316711 274.643433,448.703552 
	C275.898346,442.176575 276.998535,436.736938 277.984741,431.276703 
	C282.705109,405.141754 287.368530,378.996399 292.192749,352.880707 
	C292.381104,351.861023 294.003387,351.106232 295.572510,350.689697 
	C301.441559,351.804932 307.295715,353.790710 313.182159,353.891693 
	C346.980347,354.471466 380.788361,354.924194 414.588135,354.694824 
	C424.791534,354.625580 434.757477,351.479614 442.485138,344.030212 
	C454.887726,332.074310 456.211823,317.073120 452.804138,301.426849 
	C449.200653,284.881561 438.369019,274.728699 421.688843,272.521240 
	C412.453003,271.298950 402.701019,271.636902 393.484497,273.134796 
	C378.109589,275.633606 365.231506,284.561340 351.703522,291.726410 
	C348.230621,293.565857 344.032898,294.036865 339.841644,294.559326 
	C338.960907,293.938568 338.080170,293.317810 336.968842,292.304138 
	C336.841125,292.017426 336.803711,291.719391 337.592499,291.151428 
	C368.406433,277.365997 399.220367,263.580566 431.091400,249.322189 
	C425.543488,246.254974 421.496185,243.974197 417.409912,241.765518 
	C396.628693,230.533005 375.861389,219.274246 355.034698,208.126480 
	C348.897278,204.841309 342.581909,201.888596 336.189575,197.901825 
	C336.156036,179.266678 336.243317,160.629898 335.992828,141.997665 
	C335.939026,137.995911 334.663788,134.010590 334.001801,130.006836 
	C334.001801,130.006836 333.955475,130.032669 334.097137,129.279068 
	C333.049377,127.193153 332.001587,125.107239 331.001740,123.003433 
	C331.001740,123.003433 330.961578,123.036064 331.024658,122.414711 
	C330.642487,121.976082 330.260345,121.537445 329.992188,121.022072 
	C329.992188,121.022072 329.880219,121.091957 329.810699,120.531906 
z"/>
<path fill="#000000" opacity="1.000000" stroke="none" 
	d="
M209.531342,0.999999 
	C209.346512,1.665629 208.749283,2.844352 208.031448,2.923048 
	C177.344345,6.287279 148.906799,16.276827 122.058746,31.351368 
	C106.436005,40.123161 92.245399,50.621014 78.793747,62.471050 
	C60.215408,78.837364 44.977592,97.877251 32.716465,119.075218 
	C19.157974,142.516174 9.320888,167.625168 4.956520,194.607422 
	C4.088684,199.972748 2.825628,205.274139 1.372410,210.302505 
	C1.000000,140.406296 1.000000,70.812592 1.000000,1.000000 
	C70.354073,1.000000 139.708374,1.000000 209.531342,0.999999 
z"/>
<path fill="#000000" opacity="1.000000" stroke="none" 
	d="
M267.468658,476.000000 
	C267.653473,475.334381 268.250702,474.155670 268.968475,474.076965 
	C299.655579,470.712769 328.093079,460.723206 354.941162,445.648743 
	C370.563904,436.876953 384.754547,426.379120 398.206207,414.529053 
	C416.784576,398.162750 432.022308,379.122742 444.283478,357.924835 
	C457.842010,334.483887 467.679077,309.374878 472.043579,282.392670 
	C472.911438,277.027313 474.174469,271.725861 475.627625,266.697449 
	C476.000000,336.593689 476.000000,406.187378 476.000000,476.000000 
	C406.645935,476.000000 337.291626,476.000000 267.468658,476.000000 
z"/>
<path fill="#000000" opacity="1.000000" stroke="none" 
	d="
M0.999998,267.468658 
	C1.665627,267.653473 2.844348,268.250732 2.923049,268.968536 
	C6.287630,299.656067 16.276154,328.094513 31.352627,354.942230 
	C40.124485,370.562866 50.619545,384.753632 62.468803,398.204224 
	C78.835594,416.782806 97.876114,432.020233 119.073952,444.282349 
	C142.514893,457.842010 167.624496,467.678497 194.606979,472.043488 
	C199.972427,472.911499 205.273987,474.174347 210.302490,475.627563 
	C140.406311,476.000000 70.812614,476.000000 1.000000,476.000000 
	C1.000000,406.645935 1.000000,337.291626 0.999998,267.468658 
z"/>
<path fill="#000000" opacity="1.000000" stroke="none" 
	d="
M476.000000,209.531342 
	C475.334351,209.346512 474.155670,208.749268 474.076965,208.031433 
	C470.712738,177.344330 460.723206,148.906784 445.648682,122.058739 
	C436.876862,106.435989 426.378998,92.245399 414.528961,78.793716 
	C398.162628,60.215397 379.122772,44.977535 357.924774,32.716423 
	C334.483795,19.157953 309.374786,9.320857 282.392517,4.956511 
	C277.027191,4.088675 271.725800,2.825591 266.697449,1.372383 
	C336.593689,1.000000 406.187378,1.000000 476.000000,1.000000 
	C476.000000,70.354073 476.000000,139.708374 476.000000,209.531342 
z"/>
<path fill="#EE2A7B" opacity="1.000000" stroke="none" 
	d="
M340.168182,295.136536 
	C344.032898,294.036865 348.230621,293.565857 351.703522,291.726410 
	C365.231506,284.561340 378.109589,275.633606 393.484497,273.134796 
	C402.701019,271.636902 412.453003,271.298950 421.688843,272.521240 
	C438.369019,274.728699 449.200653,284.881561 452.804138,301.426849 
	C456.211823,317.073120 454.887726,332.074310 442.485138,344.030212 
	C434.757477,351.479614 424.791534,354.625580 414.588135,354.694824 
	C380.788361,354.924194 346.980347,354.471466 313.182159,353.891693 
	C307.295715,353.790710 301.441559,351.804932 295.155273,350.111572 
	C284.844818,345.204712 277.201691,338.419800 272.115662,328.452637 
	C271.043060,325.050720 269.987762,322.020874 268.914734,318.627991 
	C268.612854,317.068573 268.328705,315.872284 267.932922,314.514832 
	C267.551941,314.069122 267.282593,313.784546 267.066254,313.014893 
	C266.804688,252.069687 266.490143,191.609543 266.395996,130.990646 
	C266.790527,130.334320 266.964661,129.836761 267.329651,129.155777 
	C267.658905,128.654297 267.797302,128.336258 267.994263,127.779060 
	C268.052826,127.539917 268.152893,127.057793 268.399628,126.825546 
	C269.764587,124.237823 270.882782,121.882347 272.042053,119.502960 
	C272.083099,119.479042 272.218506,119.367516 272.556335,119.100113 
	C279.443512,112.511917 287.219086,108.813057 296.323395,108.218910 
	C300.272186,107.961212 304.249664,108.143379 308.214111,108.125755 
	C315.931183,110.167702 323.210724,112.994537 328.741150,119.951263 
	C329.293762,120.682823 329.586975,120.887390 329.880219,121.091949 
	C329.880219,121.091957 329.992188,121.022072 329.925842,121.364830 
	C330.226837,122.150414 330.594208,122.593239 330.961578,123.036064 
	C330.961578,123.036064 331.001740,123.003433 330.969421,123.374268 
	C331.943237,125.840950 332.949341,127.936813 333.955475,130.032669 
	C333.955475,130.032669 334.001801,130.006836 333.919556,130.453583 
	C334.204315,139.190231 334.749115,147.476913 334.899048,155.770767 
	C335.160400,170.226639 335.178345,184.686935 335.257202,199.602356 
	C335.255920,207.982880 335.295776,215.906433 335.201233,224.298248 
	C335.159790,237.903091 335.252686,251.039688 335.289215,264.629517 
	C335.216278,271.522095 335.052002,277.966217 335.260742,284.398285 
	C335.337036,286.750305 336.298798,289.073578 336.856628,291.409973 
	C336.803711,291.719391 336.841125,292.017426 337.147095,292.851624 
	C338.272949,293.978271 339.220551,294.557404 340.168182,295.136536 
z"/>
<path fill="#FAF48D" opacity="1.000000" stroke="none" 
	d="
M307.891785,107.838913 
	C304.249664,108.143379 300.272186,107.961212 296.323395,108.218910 
	C287.219086,108.813057 279.443512,112.511917 272.671143,118.584457 
	C271.509796,110.229980 270.571472,102.123772 269.547821,93.280609 
	C267.174194,94.997589 265.612793,96.127014 264.015137,96.917831 
	C262.648926,96.923904 260.915894,96.846497 260.048218,97.675171 
	C240.076279,116.750229 220.205246,135.930878 200.291107,155.066559 
	C198.617447,156.674805 196.897125,158.299881 194.957581,159.540527 
	C193.863892,160.240128 192.181808,160.635330 190.927460,160.377197 
	C167.352051,155.525452 143.804382,150.539093 120.242722,145.620056 
	C113.710594,144.256317 107.152107,143.018829 100.097649,141.622864 
	C100.550873,143.778839 100.785858,144.896698 100.609505,145.999390 
	C97.253555,145.481644 94.308952,144.979080 90.250824,144.286469 
	C105.552490,175.846802 120.373001,206.414734 135.145630,237.356842 
	C134.793304,238.668106 134.639816,239.691284 134.161942,240.529541 
	C125.781914,255.229233 117.289520,269.865295 108.977982,284.603455 
	C103.863106,293.673218 99.011345,302.891357 93.876923,312.343781 
	C90.637924,318.082214 87.563438,323.519714 83.975632,329.865112 
	C86.579422,329.734802 88.005745,329.767242 89.402122,329.578339 
	C120.722519,325.341156 152.051239,321.161407 183.341751,316.713013 
	C186.995636,316.193573 189.153976,317.143341 191.486755,319.732971 
	C210.645416,341.001190 229.906860,362.177002 249.173416,383.347778 
	C252.094971,386.558075 255.203934,389.597809 259.190002,393.710938 
	C263.143188,371.182465 266.815796,350.252960 270.756592,329.224609 
	C271.394135,329.025421 271.763550,328.925079 272.132935,328.824768 
	C277.201691,338.419800 284.844818,345.204712 294.847778,349.880737 
	C294.003387,351.106232 292.381104,351.861023 292.192749,352.880707 
	C287.368530,378.996399 282.705109,405.141754 277.984741,431.276703 
	C276.998535,436.736938 275.898346,442.176575 274.643433,448.703552 
	C263.282562,436.316711 252.722916,424.866821 242.237213,413.349640 
	C234.627625,404.991486 227.140610,396.521851 219.555008,388.141724 
	C206.722656,373.965302 193.908005,359.771820 180.915283,345.743561 
	C179.725922,344.459412 177.206543,343.541595 175.468796,343.759796 
	C146.325256,347.418976 117.200798,351.233398 88.087471,355.128265 
	C72.300308,357.240234 56.543633,359.579712 40.767097,361.772644 
	C39.693554,361.921875 38.568584,361.701141 36.638828,361.615814 
	C40.413757,354.859009 43.816051,348.639282 47.337486,342.487793 
	C66.593712,308.849457 85.855476,275.214264 105.198883,241.626099 
	C106.772911,238.892929 106.889580,236.701385 105.461937,233.779434 
	C89.014664,200.116806 72.714668,166.382187 56.391521,132.658966 
	C53.345451,126.365860 50.351898,120.047081 47.377644,113.719681 
	C46.788727,112.466835 46.399368,111.120186 45.588951,108.925926 
	C58.070908,111.484398 69.558723,113.815613 81.036301,116.196159 
	C114.367722,123.109375 147.701828,130.010101 181.013138,137.019012 
	C184.234283,137.696793 186.428253,137.141861 188.893982,134.737045 
	C207.007523,117.071060 225.285736,99.573570 243.555038,82.067825 
	C257.373444,68.826958 271.253326,55.650215 285.113892,42.453381 
	C285.946808,41.660362 286.851044,40.942211 288.918030,39.155354 
	C289.687775,45.167961 290.419586,50.222027 290.968658,55.295868 
	C292.718689,71.467651 294.334839,87.654579 296.245300,103.806976 
	C296.384674,104.985413 298.319153,106.523796 299.676544,106.862274 
	C302.207489,107.493393 304.927917,107.364616 307.891785,107.838913 
z"/>
<path fill="#FAF48E" opacity="1.000000" stroke="none" 
	d="
M337.224548,291.280701 
	C336.298798,289.073578 335.337036,286.750305 335.260742,284.398285 
	C335.052002,277.966217 335.216278,271.522095 335.520020,264.597717 
	C336.203735,263.878296 336.600250,263.643890 337.376465,263.328064 
	C349.469849,258.031830 361.183502,252.817017 373.954224,247.131638 
	C367.365021,243.609421 362.126892,240.809433 357.059204,237.715240 
	C357.074341,236.448486 357.235748,234.866013 356.715668,234.595978 
	C350.204041,231.214737 343.593750,228.023544 336.856781,224.583817 
	C336.248444,224.199326 335.792023,224.014648 335.335632,223.829971 
	C335.295776,215.906433 335.255920,207.982880 335.525085,199.529083 
	C336.005402,198.927063 336.176727,198.855286 336.348083,198.783508 
	C342.581909,201.888596 348.897278,204.841309 355.034698,208.126480 
	C375.861389,219.274246 396.628693,230.533005 417.409912,241.765518 
	C421.496185,243.974197 425.543488,246.254974 431.091400,249.322189 
	C399.220367,263.580566 368.406433,277.365997 337.224548,291.280701 
z"/>
<path fill="#F5A48D" opacity="1.000000" stroke="none" 
	d="
M336.268829,198.342682 
	C336.176727,198.855286 336.005402,198.927063 335.566223,199.072098 
	C335.178345,184.686935 335.160400,170.226639 334.899048,155.770767 
	C334.749115,147.476913 334.204315,139.190231 333.894226,130.459015 
	C334.663788,134.010590 335.939026,137.995911 335.992828,141.997665 
	C336.243317,160.629898 336.156036,179.266678 336.268829,198.342682 
z"/>
<path fill="#F5A48D" opacity="1.000000" stroke="none" 
	d="
M334.026306,129.655869 
	C332.949341,127.936813 331.943237,125.840950 330.945465,123.383209 
	C332.001587,125.107239 333.049377,127.193153 334.026306,129.655869 
z"/>
<path fill="#FAF48E" opacity="1.000000" stroke="none" 
	d="
M340.004913,294.847931 
	C339.220551,294.557404 338.272949,293.978271 337.262360,293.048096 
	C338.080170,293.317810 338.960907,293.938568 340.004913,294.847931 
z"/>
<path fill="#F5A48D" opacity="1.000000" stroke="none" 
	d="
M330.993103,122.725388 
	C330.594208,122.593239 330.226837,122.150414 329.868835,121.403198 
	C330.260345,121.537445 330.642487,121.976082 330.993103,122.725388 
z"/>
<path fill="#F5A48D" opacity="1.000000" stroke="none" 
	d="
M329.845459,120.811928 
	C329.586975,120.887390 329.293762,120.682823 328.950867,120.200745 
	C329.204376,120.126129 329.507538,120.329018 329.845459,120.811928 
z"/>
<path fill="#EE2F7C" opacity="1.000000" stroke="none" 
	d="
M270.488403,329.323456 
	C266.815796,350.252960 263.143188,371.182465 259.190002,393.710938 
	C255.203934,389.597809 252.094971,386.558075 249.173416,383.347778 
	C229.906860,362.177002 210.645416,341.001190 191.486755,319.732971 
	C189.153976,317.143341 186.995636,316.193573 183.341751,316.713013 
	C152.051239,321.161407 120.722519,325.341156 89.402122,329.578339 
	C88.005745,329.767242 86.579422,329.734802 83.975632,329.865112 
	C87.563438,323.519714 90.637924,318.082214 94.294563,312.330017 
	C101.769516,311.028229 108.655457,309.990173 115.556358,309.063354 
	C138.727081,305.951385 161.895554,302.818634 185.091202,299.903198 
	C187.005600,299.662628 189.752899,300.384735 191.032776,301.706085 
	C197.852005,308.746094 204.331482,316.115479 210.920181,323.378479 
	C223.649185,337.410278 236.360443,351.458221 249.117615,365.464355 
	C250.357681,366.825867 251.867203,367.941925 254.042526,369.874573 
	C255.511795,361.868744 256.710632,355.059479 258.018494,348.271210 
	C260.302643,336.415802 262.653839,324.573303 265.230316,312.815430 
	C265.657471,312.949402 265.831268,312.993347 266.245056,313.179382 
	C266.661072,313.380951 266.837158,313.440460 267.013275,313.500000 
	C267.282593,313.784546 267.551941,314.069122 267.614746,314.759155 
	C267.301910,316.439209 267.195618,317.713837 267.108185,319.363251 
	C268.247498,322.933197 269.367950,326.128326 270.488403,329.323456 
z"/>
<path fill="#F39087" opacity="1.000000" stroke="none" 
	d="
M267.066254,313.014893 
	C266.837158,313.440460 266.661072,313.380951 266.152588,312.956238 
	C265.643738,312.309265 265.401306,312.106354 265.062500,311.537354 
	C265.019501,308.421051 265.006805,305.749756 264.990173,302.601776 
	C264.991638,246.052277 264.997040,189.979477 265.002014,133.577484 
	C265.332336,132.497452 265.663116,131.746658 266.039368,131.034180 
	C266.084869,131.072495 266.175598,131.149414 266.175598,131.149414 
	C266.490143,191.609543 266.804688,252.069687 267.066254,313.014893 
z"/>
<path fill="#EE377F" opacity="1.000000" stroke="none" 
	d="
M264.051422,97.256424 
	C265.612793,96.127014 267.174194,94.997589 269.547821,93.280609 
	C270.571472,102.123772 271.509796,110.229980 272.333313,118.851852 
	C272.218506,119.367516 272.083099,119.479042 271.706848,119.622467 
	C269.887970,121.232857 268.445343,122.699814 266.945984,123.740936 
	C265.943268,114.628883 264.997345,105.942657 264.051422,97.256424 
z"/>
<path fill="#F5A48D" opacity="1.000000" stroke="none" 
	d="
M336.996796,263.409485 
	C336.600250,263.643890 336.203735,263.878296 335.576385,264.144470 
	C335.252686,251.039688 335.159790,237.903091 335.201233,224.298248 
	C335.792023,224.014648 336.248444,224.199326 336.848328,225.075119 
	C337.042084,232.299744 337.092346,238.833237 337.089233,245.809311 
	C337.022858,251.971085 337.009827,257.690277 336.996796,263.409485 
z"/>
<path fill="#F38883" opacity="1.000000" stroke="none" 
	d="
M270.756592,329.224609 
	C269.367950,326.128326 268.247498,322.933197 267.414917,319.367371 
	C268.112671,318.994812 268.522583,318.992920 268.932465,318.991058 
	C269.987762,322.020874 271.043060,325.050720 272.115662,328.452637 
	C271.763550,328.925079 271.394135,329.025421 270.756592,329.224609 
z"/>
<path fill="#F38C85" opacity="1.000000" stroke="none" 
	d="
M267.002716,124.166763 
	C268.445343,122.699814 269.887970,121.232857 271.665771,119.646385 
	C270.882782,121.882347 269.764587,124.237823 268.113525,126.798042 
	C267.390106,126.990410 267.199585,126.978035 267.004547,126.614304 
	C267.000916,125.564217 267.001801,124.865486 267.002716,124.166763 
z"/>
<path fill="#F39087" opacity="1.000000" stroke="none" 
	d="
M268.914734,318.627991 
	C268.522583,318.992920 268.112671,318.994812 267.396057,318.992554 
	C267.195618,317.713837 267.301910,316.439209 267.726379,314.920288 
	C268.328705,315.872284 268.612854,317.068573 268.914734,318.627991 
z"/>
<path fill="#F39087" opacity="1.000000" stroke="none" 
	d="
M267.009094,126.965668 
	C267.199585,126.978035 267.390106,126.990410 267.866760,127.030289 
	C268.152893,127.057793 268.052826,127.539917 267.769836,127.931755 
	C267.370850,128.662140 267.254822,129.000671 267.138794,129.339203 
	C266.964661,129.836761 266.790527,130.334320 266.395996,130.990646 
	C266.175598,131.149414 266.084869,131.072495 266.036987,130.667419 
	C266.329102,129.163437 266.669098,128.064560 267.009094,126.965668 
z"/>
<path fill="#F38C85" opacity="1.000000" stroke="none" 
	d="
M267.329651,129.155777 
	C267.254822,129.000671 267.370850,128.662140 267.711273,128.170898 
	C267.797302,128.336258 267.658905,128.654297 267.329651,129.155777 
z"/>
<path fill="#ED84B7" opacity="1.000000" stroke="none" 
	d="
M267.004547,126.614304 
	C266.669098,128.064560 266.329102,129.163437 265.991516,130.629089 
	C265.663116,131.746658 265.332336,132.497452 264.725891,133.900040 
	C264.307922,136.692978 264.048767,138.833771 264.041626,140.975372 
	C263.979218,159.755844 263.961731,178.536484 263.543579,197.230652 
	C262.178833,195.426102 260.548096,193.787231 260.328461,191.977142 
	C258.730530,178.808197 257.439758,165.602295 256.005157,152.413147 
	C255.026718,143.417877 253.972809,134.430832 252.852936,124.561409 
	C251.062073,125.951065 250.001144,126.634995 249.104355,127.490913 
	C233.822876,142.075928 218.635513,156.761292 203.193970,171.174469 
	C201.448746,172.803467 198.088943,174.005524 195.829178,173.572403 
	C179.213257,170.387802 162.693558,166.703873 146.128113,163.251343 
	C140.882812,162.158127 135.590561,161.290253 129.646347,160.195206 
	C130.307678,162.115463 130.569962,163.224777 131.052917,164.227814 
	C140.148987,183.119064 149.350983,201.960190 158.274109,220.932556 
	C159.250214,223.007904 159.636047,226.358673 158.627609,228.208588 
	C151.787216,240.757095 144.466171,253.042709 137.367126,265.451447 
	C133.212967,272.712616 129.181900,280.044189 124.482933,288.438385 
	C129.190216,287.869141 132.608521,287.492432 136.016403,287.037445 
	C152.447067,284.843933 168.912994,282.872772 185.286728,280.313019 
	C192.768738,279.143372 199.301102,278.691162 203.431473,286.684448 
	C204.455353,288.665924 206.648666,290.022461 208.214081,291.748230 
	C217.142883,301.591797 226.007080,311.494263 234.975235,321.301697 
	C238.131256,324.753082 241.519180,327.992401 245.308243,331.843964 
	C246.088058,329.135681 246.626755,327.729095 246.892242,326.272736 
	C250.579956,306.044220 254.369293,285.832184 257.772034,265.555420 
	C258.450378,261.513031 260.336700,259.704224 263.965576,259.421997 
	C264.002045,272.545746 263.983154,285.198364 264.079193,297.850128 
	C264.092438,299.595123 264.675110,301.335815 264.994141,303.078491 
	C265.006805,305.749756 265.019501,308.421051 265.021729,311.721313 
	C265.011322,312.350311 264.976929,312.725403 264.976929,312.725403 
	C262.653839,324.573303 260.302643,336.415802 258.018494,348.271210 
	C256.710632,355.059479 255.511795,361.868744 254.042526,369.874573 
	C251.867203,367.941925 250.357681,366.825867 249.117615,365.464355 
	C236.360443,351.458221 223.649185,337.410278 210.920181,323.378479 
	C204.331482,316.115479 197.852005,308.746094 191.032776,301.706085 
	C189.752899,300.384735 187.005600,299.662628 185.091202,299.903198 
	C161.895554,302.818634 138.727081,305.951385 115.556358,309.063354 
	C108.655457,309.990173 101.769516,311.028229 94.459076,312.029114 
	C99.011345,302.891357 103.863106,293.673218 108.977982,284.603455 
	C117.289520,269.865295 125.781914,255.229233 134.161942,240.529541 
	C134.639816,239.691284 134.793304,238.668106 135.465668,237.278351 
	C140.264038,232.075882 141.486008,227.470230 138.136230,220.978424 
	C128.926743,203.130539 120.593018,184.832458 111.787308,166.773682 
	C108.371918,159.769409 104.619652,152.929382 101.020851,146.014542 
	C100.785858,144.896698 100.550873,143.778839 100.097649,141.622864 
	C107.152107,143.018829 113.710594,144.256317 120.242722,145.620056 
	C143.804382,150.539093 167.352051,155.525452 190.927460,160.377197 
	C192.181808,160.635330 193.863892,160.240128 194.957581,159.540527 
	C196.897125,158.299881 198.617447,156.674805 200.291107,155.066559 
	C220.205246,135.930878 240.076279,116.750229 260.048218,97.675171 
	C260.915894,96.846497 262.648926,96.923904 264.015137,96.917831 
	C264.997345,105.942657 265.943268,114.628883 266.945984,123.740936 
	C267.001801,124.865486 267.000916,125.564217 267.004547,126.614304 
z"/>
<path fill="#EE317D" opacity="1.000000" stroke="none" 
	d="
M100.609505,145.999390 
	C104.619652,152.929382 108.371918,159.769409 111.787308,166.773682 
	C120.593018,184.832458 128.926743,203.130539 138.136230,220.978424 
	C141.486008,227.470230 140.264038,232.075882 135.513550,236.904205 
	C120.373001,206.414734 105.552490,175.846802 90.250824,144.286469 
	C94.308952,144.979080 97.253555,145.481644 100.609505,145.999390 
z"/>
<path fill="#EE307C" opacity="1.000000" stroke="none" 
	d="
M337.376465,263.328064 
	C337.009827,257.690277 337.022858,251.971085 337.454041,245.711761 
	C344.211029,242.784241 350.549927,240.396835 356.888794,238.009445 
	C362.126892,240.809433 367.365021,243.609421 373.954224,247.131638 
	C361.183502,252.817017 349.469849,258.031830 337.376465,263.328064 
z"/>
<path fill="#ED84B5" opacity="1.000000" stroke="none" 
	d="
M357.059204,237.715240 
	C350.549927,240.396835 344.211029,242.784241 337.507385,245.269196 
	C337.092346,238.833237 337.042084,232.299744 337.000305,225.274933 
	C343.593750,228.023544 350.204041,231.214737 356.715668,234.595978 
	C357.235748,234.866013 357.074341,236.448486 357.059204,237.715240 
z"/>
<path fill="#F38883" opacity="1.000000" stroke="none" 
	d="
M265.230316,312.815430 
	C264.976929,312.725403 265.011322,312.350311 265.052063,312.166321 
	C265.401306,312.106354 265.643738,312.309265 265.912628,312.814209 
	C265.831268,312.993347 265.657471,312.949402 265.230316,312.815430 
z"/>
<path fill="#F5CEA5" opacity="1.000000" stroke="none" 
	d="
M264.990204,302.601776 
	C264.675110,301.335815 264.092438,299.595123 264.079193,297.850128 
	C263.983154,285.198364 264.002045,272.545746 263.986938,258.958862 
	C263.969849,237.788544 263.950378,217.552811 263.930908,197.317062 
	C263.961731,178.536484 263.979218,159.755844 264.041626,140.975372 
	C264.048767,138.833771 264.307922,136.692978 264.726349,134.229248 
	C264.997040,189.979477 264.991638,246.052277 264.990204,302.601776 
z"/>
<path fill="#F3E2E4" opacity="1.000000" stroke="none" 
	d="
M263.543579,197.230652 
	C263.950378,217.552811 263.969849,237.788544 263.967896,258.487427 
	C260.336700,259.704224 258.450378,261.513031 257.772034,265.555420 
	C254.369293,285.832184 250.579956,306.044220 246.892242,326.272736 
	C246.626755,327.729095 246.088058,329.135681 245.308243,331.843964 
	C241.519180,327.992401 238.131256,324.753082 234.975235,321.301697 
	C226.007080,311.494263 217.142883,301.591797 208.214081,291.748230 
	C206.648666,290.022461 204.455353,288.665924 203.431473,286.684448 
	C199.301102,278.691162 192.768738,279.143372 185.286728,280.313019 
	C168.912994,282.872772 152.447067,284.843933 136.016403,287.037445 
	C132.608521,287.492432 129.190216,287.869141 124.482933,288.438385 
	C129.181900,280.044189 133.212967,272.712616 137.367126,265.451447 
	C144.466171,253.042709 151.787216,240.757095 158.627609,228.208588 
	C159.636047,226.358673 159.250214,223.007904 158.274109,220.932556 
	C149.350983,201.960190 140.148987,183.119064 131.052917,164.227814 
	C130.569962,163.224777 130.307678,162.115463 129.646347,160.195206 
	C135.590561,161.290253 140.882812,162.158127 146.128113,163.251343 
	C162.693558,166.703873 179.213257,170.387802 195.829178,173.572403 
	C198.088943,174.005524 201.448746,172.803467 203.193970,171.174469 
	C218.635513,156.761292 233.822876,142.075928 249.104355,127.490913 
	C250.001144,126.634995 251.062073,125.951065 252.852936,124.561409 
	C253.972809,134.430832 255.026718,143.417877 256.005157,152.413147 
	C257.439758,165.602295 258.730530,178.808197 260.328461,191.977142 
	C260.548096,193.787231 262.178833,195.426102 263.543579,197.230652 
z"/>
</svg>